<svg width="1600" height="2000" viewBox="0 0 1600 2000" fill="none" xmlns="http://www.w3.org/2000/svg">
  <rect width="1600" height="2000" fill="#F7F7F4"/>
  <rect x="1040" width="560" height="2000" fill="#E8ECEF"/>
  <circle cx="1230" cy="350" r="190" fill="#FFB78C" fill-opacity="0.55"/>
  <circle cx="320" cy="1580" r="220" fill="#86D1BB" fill-opacity="0.45"/>
  <path d="M860 370C953.888 370 1030 446.112 1030 540V1540H690V540C690 446.112 766.112 370 860 370Z" fill="#111111"/>
  <path d="M710 760C710 700.353 758.353 652 818 652H902C961.647 652 1010 700.353 1010 760V1602H710V760Z" fill="#F8F7F2"/>
  <path d="M798 580C798 544.654 826.654 516 862 516C897.346 516 926 544.654 926 580V654H798V580Z" fill="#111111"/>
  <path d="M590 1020C654.173 954.386 741.708 918 833 918C924.292 918 1011.83 954.386 1076 1020V1576H590V1020Z" fill="#D4DCE8"/>
  <path d="M508 1670C616.201 1558.8 763.963 1496 918 1496C1072.04 1496 1219.8 1558.8 1328 1670V2000H508V1670Z" fill="#131313"/>
  <rect x="204" y="324" width="286" height="1100" rx="144" stroke="#111111" stroke-width="8"/>
  <rect x="224" y="344" width="246" height="1060" rx="123" fill="#ECEEEA"/>
</svg>
