<svg width="1200" height="1600" viewBox="0 0 1200 1600" fill="none" xmlns="http://www.w3.org/2000/svg">
  <rect width="1200" height="1600" fill="#F6F7F8"/>
  <circle cx="932" cy="280" r="142" fill="#FFB78C" fill-opacity="0.4"/>
  <rect x="102" y="220" width="196" height="1062" rx="98" stroke="#111111" stroke-width="8"/>
  <path d="M604 232C678.006 232 738 291.994 738 366V450H470V366C470 291.994 529.994 232 604 232Z" fill="#111111"/>
  <path d="M356 452C356 396.772 400.772 352 456 352H752C807.228 352 852 396.772 852 452V1308H356V452Z" fill="#111111"/>
  <path d="M430 526H778V1340C778 1472.55 670.552 1580 538 1580H670C537.448 1580 430 1472.55 430 1340V526Z" fill="#DDE3EB"/>
  <path d="M236 1456C349.511 1335.42 509.468 1266 676.5 1266C843.532 1266 1003.49 1335.42 1117 1456V1600H236V1456Z" fill="#0E1011"/>
</svg>
