<svg width="1200" height="1600" viewBox="0 0 1200 1600" fill="none" xmlns="http://www.w3.org/2000/svg">
  <rect width="1200" height="1600" fill="#F8F8F6"/>
  <circle cx="254" cy="278" r="144" fill="#FFB78C" fill-opacity="0.35"/>
  <path d="M594 250C664.692 250 722 307.308 722 378V456H466V378C466 307.308 523.308 250 594 250Z" fill="#111111"/>
  <path d="M424 466C424 401.935 475.935 350 540 350H648C712.065 350 764 401.935 764 466V796H424V466Z" fill="#F0EFE8"/>
  <path d="M382 720C382 663.667 427.667 618 484 618H704C760.333 618 806 663.667 806 720V1034H382V720Z" fill="#111111"/>
  <path d="M446 1040H770V1340C770 1483.59 653.587 1600 510 1600H706C562.413 1600 446 1483.59 446 1340V1040Z" fill="#DADFE5"/>
</svg>
