<svg width="1200" height="1600" viewBox="0 0 1200 1600" fill="none" xmlns="http://www.w3.org/2000/svg">
  <rect width="1200" height="1600" fill="#F8F7F3"/>
  <rect x="0" y="0" width="430" height="1600" fill="#F1E6DE"/>
  <circle cx="296" cy="310" r="144" fill="#E4838F" fill-opacity="0.34"/>
  <path d="M622 250C690.483 250 746 305.517 746 374V446H498V374C498 305.517 553.517 250 622 250Z" fill="#101112"/>
  <path d="M414 454C414 396.562 460.562 350 518 350H726C783.438 350 830 396.562 830 454V912H414V454Z" fill="#E8EAF0"/>
  <path d="M370 746C370 684.144 420.144 634 482 634H762C823.856 634 874 684.144 874 746V1052H370V746Z" fill="#111111"/>
  <path d="M450 1030H794V1332C794 1480.01 673.013 1600 525 1600H719C570.987 1600 450 1480.01 450 1332V1030Z" fill="#F4F1EB"/>
</svg>
