<svg width="1200" height="1600" viewBox="0 0 1200 1600" fill="none" xmlns="http://www.w3.org/2000/svg">
  <rect width="1200" height="1600" fill="#FAFAF8"/>
  <rect x="780" width="420" height="1600" fill="#E5E9EC"/>
  <circle cx="938" cy="240" r="130" fill="#86D1BB" fill-opacity="0.45"/>
  <path d="M589 254C659.692 254 717 311.308 717 382V454H461V382C461 311.308 518.308 254 589 254Z" fill="#101112"/>
  <path d="M400 490C400 424.83 452.83 372 518 372H662C727.17 372 780 424.83 780 490V910H400V490Z" fill="#111111"/>
  <path d="M430 640H750V1112C750 1240.13 646.127 1344 518 1344H662C533.873 1344 430 1240.13 430 1112V640Z" fill="#F0EFE9"/>
  <path d="M344 1312C430.219 1221.9 550.123 1172 674.5 1172C798.877 1172 918.781 1221.9 1005 1312V1600H344V1312Z" fill="#151515"/>
</svg>
