<svg width="1200" height="1600" viewBox="0 0 1200 1600" fill="none" xmlns="http://www.w3.org/2000/svg">
  <rect width="1200" height="1600" fill="#F3F6F8"/>
  <rect x="790" width="410" height="1600" fill="#D8E0E6"/>
  <circle cx="952" cy="288" r="120" fill="#86D1BB" fill-opacity="0.32"/>
  <path d="M606 240C679.454 240 739 299.546 739 373V442H473V373C473 299.546 532.546 240 606 240Z" fill="#101112"/>
  <path d="M364 444C364 390.98 406.98 348 460 348H752C805.02 348 848 390.98 848 444V1298H364V444Z" fill="#C7D3DC"/>
  <path d="M428 538H784V1350C784 1488.07 671.069 1601 533 1601H679C540.931 1601 428 1488.07 428 1350V538Z" fill="#111111"/>
  <path d="M252 1452C367.124 1336.56 526.608 1272 692 1272C857.392 1272 1016.88 1336.56 1132 1452V1600H252V1452Z" fill="#F6F7F5"/>
</svg>
